<?xml version="1.0" encoding="utf-8"?>
<!-- Generator: Adobe Illustrator 20.0.0, SVG Export Plug-In . SVG Version: 6.00 Build 0)  -->
<svg version="1.1" id="Layer_1" xmlns="http://www.w3.org/2000/svg" xmlns:xlink="http://www.w3.org/1999/xlink" x="0px" y="0px"
	 viewBox="0 0 1244 360" style="enable-background:new 0 0 1244 360;" xml:space="preserve">
<style type="text/css">
	.st0{fill:#1D1D1D;}
	.st1{fill:#146CDA;}
	.st2{opacity:0.25;fill:#FFFFFF;}
</style>
<g>
	<g>
		<path class="st0" d="M528.9,291.4l-48.2-84.1h-12.3v84.1h-53.9V68.7h92c17.6,0,32.5,3,44.7,9.1c12.2,6.1,21.3,14.4,27.4,25
			c6.1,10.6,9.1,22.7,9.1,36.4c0,16.2-4.5,29.9-13.4,41.3c-8.9,11.3-21.9,19.1-38.9,23.3l52.9,87.6H528.9z M468.5,170.5h33.4
			c10.7,0,18.6-2.4,23.6-7.1c5-4.7,7.6-11.7,7.6-20.9c0-8.8-2.6-15.8-7.7-20.8c-5.1-5-13-7.6-23.5-7.6h-33.4V170.5z"/>
	</g>
	<g>
		<path class="st0" d="M686.6,294.6c-26.9,0-48.6-7.4-65.2-22.3c-16.6-14.9-24.9-35.3-24.9-61.2c0-25.8,8.3-46.2,24.8-61
			c16.6-14.8,38.3-22.2,65.3-22.2c27.1,0,48.9,7.4,65.4,22.2c16.6,14.8,24.8,35.1,24.8,61c0,25.9-8.3,46.3-24.9,61.2
			C735.3,287.2,713.6,294.6,686.6,294.6z M686,255.3c12.3,0,22.2-4,29.8-12.2c7.5-8.1,11.3-18.8,11.3-32c0-13.1-3.8-23.7-11.3-31.8
			c-7.5-8.1-17.5-12.2-29.8-12.2c-11.8,0-21.4,4.1-28.7,12.2c-7.3,8.1-11,18.7-11,31.8c0,13.1,3.7,23.8,11,31.9
			C664.6,251.2,674.2,255.3,686,255.3z"/>
		<path class="st0" d="M923.5,131l-66.3,122.3h63.2v38.3H786.9l65.8-122.1h-60V131H923.5z"/>
		<path class="st0" d="M1100,209.3l-0.6,11.8H982.7c1,11.2,5,19.7,11.9,25.5c6.9,5.8,15.5,8.8,25.8,8.8c15.6,0,26-6.4,31.4-19.2
			l46.1,6.3c-5.1,16.5-14.6,29.3-28.3,38.5c-13.7,9.1-30,13.7-48.9,13.7c-27.1,0-48.4-7.3-64.1-22C940.8,258,933,237.6,933,211.4
			c0-26,7.9-46.5,23.6-61.4c15.7-14.9,36.5-22.4,62.4-22.4c11.8,0,22.5,1.6,32.1,4.8c9.6,3.2,18.1,8.1,25.5,14.5s13.1,15,17.2,25.6
			C1097.8,183.2,1099.9,195.4,1100,209.3z M1019.3,162.7c-19.4,0-31.1,8.7-35.2,26.1h66.6c-1.3-8.4-4.8-14.9-10.5-19.4
			C1034.6,164.9,1027.6,162.7,1019.3,162.7z"/>
		<path class="st0" d="M1179.1,155.8c4.3-7.1,11.4-13.3,21.3-18.5c9.9-5.3,20.4-8,31.6-8.1v44.5c-18,0-30.9,3-38.6,9
			c-7.7,6-11.5,17-11.5,33.1v75.8h-50.8V131h48V155.8z"/>
	</g>
</g>
<g id="Layer_2">
</g>
<g>
	<g>
		<path class="st1" d="M325.9,70.4l-33.8,38.1c1.5,2.1,2.9,4.3,4.3,6.5c12.1,19.7,18.6,42.3,18.6,66c0,16.9-3.3,33.3-9.6,48.5
			c-6.3,15-15.4,28.8-27.3,40.6C254.3,293.9,222.7,307,189,307s-65.3-13.1-89.1-36.9C76.1,246.3,63,214.7,63,181
			c0-12.5,1.8-24.8,5.3-36.4c5.9-19.7,16.6-37.7,31.6-52.7C123.7,68.1,155.3,55,189,55c11.5,0,22.7,1.5,33.5,4.5
			c18.3,5,35.3,14.2,49.8,27l19.2-22.1l13.6-15.7c0,0-0.1,0-0.1-0.1c-2.7-2.4-5.5-4.7-8.4-6.9C266.9,18.7,229.5,5,189,5
			C110.4,5,43.8,56.6,21.2,127.7C15.9,144.5,13,162.4,13,181c0,97.2,78.8,176,176,176c74.1,0,137.5-45.8,163.5-110.7
			c8.1-20.2,12.5-42.2,12.5-65.3C365,139.1,350.4,100.6,325.9,70.4z"/>
		<polygon class="st1" points="319.3,32 305,48.6 291.5,64.4 212.3,156.3 272.3,171.7 225.2,200.8 114,269.3 185.2,186.4 
			185.3,186.3 183.8,185.9 125.7,170.7 129.4,166.4 222.5,59.5 226.3,52.3 296.6,41.7 		"/>
		<polygon class="st1" points="325.9,70.4 317,107.3 296.4,115 281,120.7 		"/>
	</g>
	<path class="st2" d="M305,48.6C305,48.7,305.1,48.7,305,48.6l-13.5,15.7l-79.1,91.9l60,15.3l-47.1,29.1l-40-14.3l-1.4-0.5
		l-54.4-19.5l93.2-107c-10.8-3-22-4.5-33.5-4.5c-33.7,0-65.3,13.1-89.1,36.9c-14.9,15-25.7,33-31.6,52.7l-47.1-16.9
		C43.8,56.6,110.4,5,189,5c40.5,0,77.9,13.7,107.6,36.7l22.7-9.7L305,48.6z"/>
	<path class="st2" d="M365,181c0,23.1-4.4,45.1-12.5,65.3l-47.1-16.9c6.3-15.1,9.6-31.5,9.6-48.5c0-23.7-6.5-46.4-18.6-66l-15.4,5.7
		l44.9-50.3C350.4,100.6,365,139.1,365,181z"/>
</g>
</svg>
